<svg width="24" height="24" viewBox="0 0 24 24" fill="none" xmlns="http://www.w3.org/2000/svg">
  <path
    d="M4.75 3.5H10.4C14.5484 3.5 17.75 6.63356 17.75 10.75C17.75 14.8664 14.5484 18 10.4 18H8.45V15.4H10.15C12.6914 15.4 14.65 13.4792 14.65 10.75C14.65 8.0208 12.6914 6.1 10.15 6.1H7.85V20.5H4.75V3.5Z"
    fill="currentColor"
  />
  <path
    d="M9.4 7.2H12.55C15.1412 7.2 17.1 8.99086 17.1 11.45C17.1 13.9091 15.1412 15.7 12.55 15.7H11.65V13.5H12.2C13.4037 13.5 14.25 12.6804 14.25 11.45C14.25 10.2196 13.4037 9.4 12.2 9.4H11.95V17.8H9.4V7.2Z"
    fill="currentColor"
  />
</svg>
